<?xml version="1.0" encoding="utf-8"?>
<!-- Generator: Adobe Illustrator 16.0.4, SVG Export Plug-In . SVG Version: 6.00 Build 0)  -->
<!DOCTYPE svg PUBLIC "-//W3C//DTD SVG 1.1//EN" "http://www.w3.org/Graphics/SVG/1.1/DTD/svg11.dtd">
<svg version="1.1" id="Layer_1" xmlns="http://www.w3.org/2000/svg" xmlns:xlink="http://www.w3.org/1999/xlink" x="0px" y="0px"
	 width="400px" height="400px" viewBox="0 0 400 400" enable-background="new 0 0 400 400" xml:space="preserve">
<g>
	
		<rect x="147.137" y="42.518" transform="matrix(0.0486 0.9988 -0.9988 0.0486 216.8017 -140.9091)" fill="#FFFFFF" width="70.457" height="1.66"/>
	<path fill="#FFFFFF" d="M120.2,375.835l-1.509-0.69l19.199-41.916l-4.431-39.466l-33.13,6.123l-38.094,33.677l-1.099-1.243
		l38.267-33.829c0.112-0.1,0.25-0.167,0.398-0.194l34.233-6.327c0.226-0.04,0.46,0.012,0.645,0.149
		c0.186,0.138,0.305,0.345,0.331,0.574l4.556,40.58c0.017,0.15-0.007,0.301-0.07,0.438L120.2,375.835z"/>
	<path fill="#FFFFFF" d="M119.657,348.295c-0.219,0-0.431-0.087-0.586-0.243l-7.369-7.361c-0.284-0.284-0.325-0.729-0.096-1.06
		l7.27-10.488c0.132-0.191,0.339-0.318,0.57-0.35c0.229-0.032,0.464,0.035,0.644,0.185l8.713,7.262
		c0.35,0.291,0.4,0.809,0.113,1.161l-8.614,10.588c-0.148,0.183-0.367,0.293-0.602,0.306
		C119.686,348.295,119.671,348.295,119.657,348.295z M113.365,340.006l6.228,6.222l7.517-9.237l-7.387-6.156L113.365,340.006z"/>
	<path fill="#FFFFFF" d="M98.184,328.577c-0.202,0-0.396-0.073-0.548-0.206l-7.78-6.852c-0.327-0.287-0.375-0.777-0.113-1.125
		l6.846-9.03c0.14-0.184,0.35-0.301,0.58-0.324c0.229-0.018,0.458,0.053,0.632,0.205l8.191,7.262
		c0.337,0.299,0.374,0.812,0.084,1.156l-7.258,8.619c-0.144,0.17-0.351,0.276-0.573,0.293
		C98.225,328.576,98.205,328.577,98.184,328.577z M91.531,320.783l6.564,5.78l6.189-7.352l-6.915-6.13L91.531,320.783z"/>
	<path fill="#FFFFFF" d="M96.587,359.771l-1.362-0.948l10.049-14.442l-7.58-6.772l-13.549,13.557l-1.174-1.173l14.104-14.112
		c0.312-0.312,0.812-0.326,1.14-0.033l8.714,7.785c0.312,0.28,0.367,0.749,0.128,1.094L96.587,359.771z"/>
	<path fill="#FFFFFF" d="M80.856,302.109c-0.069,0-0.139-0.009-0.207-0.026c-0.248-0.063-0.453-0.239-0.554-0.474l-4.556-10.487
		c-0.088-0.202-0.092-0.432-0.01-0.637c0.081-0.205,0.241-0.37,0.444-0.456l7.258-3.114c0.374-0.159,0.804-0.028,1.024,0.311
		l4.979,7.686c0.235,0.363,0.153,0.846-0.19,1.109l-7.681,5.916C81.216,302.05,81.037,302.109,80.856,302.109z M77.393,291.226
		l3.8,8.746l6.231-4.799l-4.183-6.456L77.393,291.226z"/>
	<path fill="#FFFFFF" d="M93.615,293.49c-0.052,0-0.104-0.005-0.156-0.015c-0.222-0.042-0.416-0.174-0.539-0.361l-5.079-7.785
		c-0.233-0.358-0.157-0.834,0.176-1.102l6.846-5.493c0.174-0.138,0.397-0.203,0.618-0.176c0.222,0.026,0.423,0.141,0.559,0.316
		l6.013,7.784c0.138,0.18,0.197,0.407,0.164,0.631s-0.157,0.424-0.342,0.556l-7.781,5.492
		C93.953,293.438,93.786,293.49,93.615,293.49z M89.643,285.052l4.197,6.434l6.369-4.497l-4.966-6.43L89.643,285.052z"/>
	<path fill="#FFFFFF" d="M70.798,285.705c-0.237,0-0.468-0.102-0.628-0.287l-5.913-6.851c-0.16-0.186-0.23-0.431-0.192-0.672
		s0.18-0.453,0.389-0.58l8.191-4.982c0.383-0.234,0.884-0.12,1.128,0.259l5.913,9.142c0.14,0.216,0.172,0.485,0.086,0.728
		s-0.279,0.432-0.524,0.512l-8.191,2.691C70.972,285.691,70.885,285.705,70.798,285.705z M66.153,278.225l4.911,5.689l6.643-2.183
		l-4.89-7.56L66.153,278.225z"/>
	<path fill="#FFFFFF" d="M83.147,279.788c-0.279,0-0.547-0.14-0.703-0.388l-4.568-7.262c-0.118-0.188-0.156-0.413-0.106-0.628
		c0.05-0.216,0.184-0.402,0.371-0.519l8.191-5.083c0.388-0.238,0.897-0.123,1.14,0.263l5.502,8.72
		c0.131,0.208,0.164,0.465,0.087,0.699c-0.076,0.235-0.253,0.423-0.482,0.515l-9.125,3.625
		C83.353,279.77,83.249,279.788,83.147,279.788z M79.725,271.962l3.756,5.971l7.554-3.001l-4.529-7.177L79.725,271.962z"/>
	<path fill="#FFFFFF" d="M63.018,273.361c-0.059,0-0.117-0.006-0.175-0.019c-0.223-0.048-0.416-0.186-0.535-0.381l-4.979-8.208
		c-0.116-0.191-0.15-0.422-0.094-0.638c0.056-0.217,0.197-0.401,0.391-0.513l6.323-3.625c0.394-0.226,0.898-0.092,1.128,0.301
		l4.568,7.784c0.221,0.376,0.113,0.858-0.247,1.104l-5.913,4.049C63.347,273.312,63.184,273.361,63.018,273.361z M59.189,264.62
		l4.083,6.731l4.55-3.115l-3.761-6.409L59.189,264.62z"/>
	<path fill="#FFFFFF" d="M76.711,267.021c-0.052,0-0.104-0.005-0.156-0.015c-0.221-0.042-0.416-0.173-0.539-0.362l-5.079-7.785
		c-0.233-0.357-0.157-0.833,0.175-1.101l6.846-5.492c0.174-0.139,0.395-0.202,0.618-0.177c0.221,0.027,0.423,0.142,0.559,0.317
		l6.012,7.784c0.138,0.179,0.197,0.407,0.164,0.631c-0.034,0.224-0.157,0.424-0.342,0.555l-7.78,5.493
		C77.048,266.969,76.881,267.021,76.711,267.021z M72.738,258.583l4.197,6.435l6.369-4.497l-4.966-6.43L72.738,258.583z"/>
	<path fill="#FFFFFF" d="M89.993,198.939c-0.004,0-0.009,0-0.014,0l-83.092-1.358l0.027-1.66l82.321,1.345l0.752-8.374
		c0.04-0.441,0.4-0.772,0.86-0.755l9.816,0.392l0.742-6.091c0.054-0.439,0.442-0.749,0.885-0.728l12.07,0.884l1.891-7.238
		l-10.077-2.5c-0.229-0.057-0.424-0.209-0.534-0.419c-0.11-0.209-0.126-0.456-0.043-0.678l2.872-7.678l-10.014-1.7
		c-0.253-0.043-0.472-0.2-0.593-0.426c-0.121-0.226-0.131-0.495-0.027-0.729l2.891-6.51l-75.398-34.323l0.688-1.511l76.146,34.664
		c0.415,0.189,0.6,0.676,0.415,1.092l-2.791,6.286l9.952,1.689c0.244,0.041,0.457,0.189,0.58,0.404
		c0.124,0.215,0.145,0.473,0.058,0.705l-2.898,7.748l9.988,2.479c0.216,0.053,0.401,0.191,0.514,0.382
		c0.113,0.191,0.146,0.419,0.089,0.634l-2.278,8.719c-0.101,0.387-0.467,0.636-0.864,0.618l-11.97-0.876l-0.738,6.065
		c-0.052,0.429-0.419,0.739-0.857,0.729l-9.792-0.392l-0.75,8.356C90.781,198.611,90.422,198.939,89.993,198.939z"/>
	<path fill="#FFFFFF" d="M13.324,185.238c-0.062,0-0.125-0.007-0.186-0.021l-5.913-1.357l0.371-1.618l5.06,1.162l1.207-6.923
		c0.042-0.239,0.186-0.448,0.395-0.571c0.208-0.124,0.461-0.15,0.691-0.072l4.592,1.563l1.173-5.921
		c0.044-0.226,0.181-0.423,0.376-0.544c0.196-0.121,0.432-0.157,0.654-0.096l4.136,1.118l3.791-17.563l-4.718-1.153
		c-0.219-0.053-0.406-0.193-0.52-0.387c-0.114-0.194-0.144-0.426-0.083-0.642l2.06-7.372l-4.671-1.152
		c-0.225-0.056-0.417-0.202-0.528-0.405c-0.112-0.203-0.134-0.443-0.061-0.663l2.016-6.063l-6.06-2.018l0.524-1.575l6.847,2.279
		c0.435,0.145,0.67,0.614,0.525,1.049l-1.994,5.998l4.63,1.143c0.218,0.054,0.405,0.193,0.518,0.388
		c0.113,0.193,0.143,0.425,0.083,0.642l-2.06,7.37l4.669,1.142c0.437,0.106,0.709,0.542,0.615,0.981l-4.146,19.207
		c-0.048,0.223-0.186,0.416-0.38,0.534s-0.429,0.152-0.648,0.093l-4.121-1.114l-1.185,5.979c-0.046,0.234-0.192,0.438-0.399,0.558
		c-0.207,0.12-0.455,0.144-0.683,0.067l-4.571-1.556l-1.19,6.83c-0.04,0.224-0.169,0.422-0.359,0.548
		C13.646,185.19,13.486,185.238,13.324,185.238z"/>
	<path fill="#FFFFFF" d="M81.279,187.928c-0.084,0-0.169-0.013-0.251-0.039l-12.76-4.048c-0.41-0.13-0.653-0.552-0.559-0.972
		l6.423-28.748c0.049-0.216,0.182-0.404,0.37-0.522c0.188-0.118,0.415-0.157,0.631-0.104l13.183,3.114
		c0.444,0.105,0.721,0.549,0.618,0.994l-6.846,29.682c-0.052,0.226-0.196,0.42-0.398,0.534
		C81.564,187.891,81.422,187.928,81.279,187.928z M69.495,182.489l11.178,3.546l6.458-28l-11.562-2.731L69.495,182.489z"/>
	
		<rect x="70.474" y="174.18" transform="matrix(0.9502 0.3115 -0.3115 0.9502 58.3432 -15.2691)" fill="#FFFFFF" width="12.995" height="1.66"/>
	
		<rect x="73.586" y="164.626" transform="matrix(0.9502 0.3116 -0.3116 0.9502 55.5497 -16.7166)" fill="#FFFFFF" width="12.989" height="1.66"/>
	<path fill="#FFFFFF" d="M75.777,229.144c-3.601,0-6.531-2.724-6.531-6.073s2.93-6.074,6.531-6.074c3.602,0,6.531,2.725,6.531,6.074
		S79.378,229.144,75.777,229.144z M75.777,218.656c-2.686,0-4.871,1.98-4.871,4.414s2.185,4.413,4.871,4.413
		s4.872-1.979,4.872-4.413S78.463,218.656,75.777,218.656z"/>
	<path fill="#FFFFFF" d="M87.039,147.204l-1.362-0.949l6.224-8.931c0.17-0.244,0.455-0.377,0.754-0.353l24.337,2.156l-9.399-21.549
		c-0.107-0.248-0.088-0.531,0.051-0.763l5.277-8.708L66.553,57.924l1.219-1.127l46.793,50.645c0.251,0.272,0.292,0.677,0.1,0.994
		l-5.379,8.875l9.787,22.437c0.117,0.269,0.083,0.579-0.087,0.816c-0.171,0.238-0.455,0.366-0.747,0.342l-25.251-2.237
		L87.039,147.204z"/>
	<path fill="#FFFFFF" d="M74.943,117.66c-0.246,0-0.479-0.109-0.637-0.298l-6.847-8.202c-0.239-0.287-0.257-0.698-0.045-1.005
		l6.33-9.13c0.143-0.206,0.372-0.337,0.622-0.355c0.253-0.018,0.496,0.078,0.667,0.262l7.264,7.785
		c0.269,0.287,0.298,0.724,0.071,1.045l-6.747,9.547c-0.149,0.21-0.387,0.34-0.645,0.35C74.965,117.659,74.954,117.66,74.943,117.66
		z M69.139,108.581l5.75,6.888l5.734-8.114l-6.101-6.538L69.139,108.581z"/>
	<path fill="#FFFFFF" d="M89.469,127.207c-0.163,0-0.328-0.048-0.472-0.148l-7.78-5.394c-0.323-0.224-0.445-0.645-0.291-1.007
		l5.079-11.939c0.095-0.222,0.281-0.392,0.511-0.466c0.231-0.073,0.481-0.042,0.687,0.083l10.481,6.434
		c0.196,0.12,0.333,0.316,0.379,0.542s-0.004,0.46-0.138,0.647l-7.78,10.898C89.984,127.086,89.729,127.207,89.469,127.207z
		 M82.718,120.687l6.553,4.542l6.787-9.508l-8.902-5.464L82.718,120.687z"/>
	<path fill="#FFFFFF" d="M60.316,106.244c-0.186,0-0.367-0.062-0.515-0.179L42.479,92.364l1.03-1.302l16.609,13.137l5.951-9.116
		l-15.94-13.639l1.079-1.261l16.494,14.112c0.317,0.271,0.383,0.735,0.155,1.084l-6.846,10.487
		c-0.127,0.195-0.331,0.328-0.561,0.365C60.405,106.24,60.361,106.244,60.316,106.244z"/>
	<path fill="#FFFFFF" d="M119.757,114.652c-0.222,0-0.443-0.088-0.606-0.262l-4.768-5.082c-0.219-0.218-0.313-0.266-0.317-0.268
		c-0.602-0.025-0.983-0.333-1.825-1.478l1.337-0.983c0.402,0.547,0.597,0.75,0.678,0.823c0.409,0.04,0.76,0.192,1.319,0.751
		l4.248,4.527l11.224-9.458c0.179-0.151,0.412-0.223,0.647-0.188c0.232,0.032,0.44,0.16,0.573,0.354l4.045,5.917l-1.371,0.937
		l-3.527-5.159l-11.124,9.373C120.136,114.587,119.946,114.652,119.757,114.652z"/>
	<path fill="#FFFFFF" d="M152.709,99.169l-4.556-5.916c-0.148-0.192-0.205-0.44-0.155-0.678c0.05-0.237,0.202-0.441,0.415-0.557
		l9.433-5.152l-24.866-68.671l1.561-0.565l25.108,69.341c0.14,0.385-0.023,0.815-0.382,1.011l-9.206,5.028l3.964,5.146
		L152.709,99.169z"/>
	<path fill="#FFFFFF" d="M140.309,118.638c-4.633,0-10.91-2.396-12.1-4.136c-1.308-1.907,2.021-4.308,4.695-6.237
		c0.666-0.48,1.295-0.934,1.513-1.154l1.181,1.167c-0.315,0.319-0.905,0.745-1.722,1.334c-1.084,0.782-4.383,3.162-4.291,3.97
		c0.849,1.232,8.038,4.082,12.324,3.262c4.003-0.755,9.879-4.693,12.331-8.262c2.353-3.436,2.614-10.905,2.171-12.612
		c-0.424-0.195-2.054,0.738-2.75,1.135c-0.676,0.384-1.21,0.688-1.631,0.803l-0.436-1.602c0.218-0.06,0.764-0.37,1.246-0.644
		c1.438-0.817,3.067-1.746,4.228-1.258c0.332,0.139,0.765,0.45,0.949,1.144c0.568,2.19,0.223,10.129-2.407,13.972
		c-2.703,3.935-8.959,8.118-13.39,8.954C141.631,118.586,140.988,118.638,140.309,118.638z"/>
	<path fill="#FFFFFF" d="M129.278,93.665c-3.434,0-5.891-1.988-7.865-3.586c-0.066-0.054-0.125-0.118-0.172-0.19l-8.714-13.29
		c-0.25-0.382-0.146-0.894,0.234-1.146l18.262-12.145c0.188-0.126,0.419-0.169,0.641-0.119c0.221,0.049,0.412,0.187,0.529,0.381
		l8.091,13.39c0.05,0.084,0.086,0.177,0.104,0.273c0.122,0.639,0.281,1.286,0.441,1.936c0.949,3.863,2.024,8.242-4.156,11.913
		C133.982,92.815,131.555,93.665,129.278,93.665z M122.559,88.87c1.838,1.487,3.924,3.136,6.719,3.136
		c1.948,0,4.082-0.764,6.524-2.335c5.148-3.059,4.346-6.324,3.417-10.105c-0.154-0.628-0.308-1.253-0.431-1.872l-7.567-12.522
		l-16.854,11.208L122.559,88.87z"/>
	
		<rect x="115.841" y="79.305" transform="matrix(0.5206 0.8538 -0.8538 0.5206 130.155 -71.5427)" fill="#FFFFFF" width="25.895" height="1.661"/>
	<path fill="#FFFFFF" d="M269.292,380.139l-29.552-79.392c-0.126-0.339-0.019-0.72,0.266-0.943l7.618-5.979l-8.767-14.843
		c-0.194-0.33-0.139-0.751,0.137-1.019l10.904-10.587c0.324-0.317,0.847-0.313,1.167,0.011l14.558,14.663l7.723-5.128
		c0.332-0.22,0.775-0.174,1.052,0.11l59.753,61.132l-1.187,1.161l-59.272-60.641l-7.718,5.125c-0.329,0.219-0.77,0.175-1.049-0.107
		l-14.459-14.563l-9.847,9.561l8.805,14.907c0.211,0.358,0.125,0.818-0.203,1.075l-7.713,6.054l29.341,78.824L269.292,380.139z"/>
	<path fill="#FFFFFF" d="M295.828,362.455l-12.236-18.684c-0.121-0.186-0.164-0.412-0.116-0.63c0.047-0.216,0.178-0.406,0.365-0.525
		l12.236-7.784c0.194-0.122,0.434-0.159,0.653-0.103c0.224,0.057,0.412,0.204,0.521,0.406l11.415,20.962l-1.458,0.794
		l-10.989-20.183l-10.778,6.856l11.776,17.98L295.828,362.455z"/>
	<path fill="#FFFFFF" d="M257.834,323.595c-0.082,0-0.165-0.012-0.245-0.037c-0.256-0.079-0.458-0.276-0.542-0.53l-3.636-10.898
		c-0.105-0.318-0.01-0.669,0.243-0.889l6.336-5.506c0.175-0.151,0.397-0.225,0.634-0.198c0.229,0.024,0.438,0.143,0.576,0.327
		l6.847,9.143c0.272,0.364,0.201,0.882-0.162,1.158l-9.549,7.262C258.189,323.536,258.013,323.595,257.834,323.595z M255.161,312.13
		l3.094,9.272l7.969-6.062l-5.818-7.768L255.161,312.13z"/>
	<path fill="#FFFFFF" d="M277.439,310.517c-0.057,0-0.113-0.006-0.17-0.018c-0.216-0.045-0.406-0.175-0.526-0.361l-6.847-10.587
		c-0.224-0.346-0.16-0.802,0.148-1.074l7.78-6.851c0.189-0.166,0.444-0.24,0.692-0.194c0.248,0.044,0.464,0.198,0.585,0.419
		l6.747,12.356c0.206,0.378,0.089,0.852-0.271,1.09l-7.681,5.082C277.761,310.47,277.602,310.517,277.439,310.517z M271.679,299.25
		l6.003,9.282l6.345-4.199l-5.884-10.775L271.679,299.25z"/>
	<path fill="#FFFFFF" d="M283.119,285.731l-1.6-0.442l2.234-8.093c-0.797-3.265-4.448-9.545-5.964-10.664
		c-0.299,0.294-0.741,1.285-1.016,1.899c-0.631,1.413-1.175,2.633-2.177,2.89c-0.31,0.079-0.786,0.091-1.296-0.296
		c-1.925-1.515-7.457-8.472-6.307-13.621c1.068-4.878,7.822-13.446,12.459-15.805c4.801-2.469,13.704-0.025,15.843,1.744
		c0.357,0.301,0.562,0.695,0.599,1.145c0.092,1.188-1.008,2.452-2.282,3.918c-0.66,0.759-2.035,2.339-1.913,2.783
		c1.705,1.263,11.225,1.946,15.124,1.566l3.949-4.139c0.237-0.25,0.604-0.326,0.923-0.192l67.42,28.424l-0.646,1.53l-66.892-28.202
		l-3.763,3.945c-0.133,0.14-0.311,0.228-0.502,0.251c-2.97,0.356-14.128-0.019-16.574-1.825c-0.407-0.309-0.644-0.721-0.693-1.195
		c-0.126-1.23,1.059-2.593,2.314-4.036c0.686-0.788,1.962-2.257,1.878-2.704c-1.601-1.312-9.903-3.657-14.029-1.535
		c-4.231,2.152-10.623,10.249-11.595,14.685c-0.902,4.045,3.803,10.385,5.63,11.892c0.3-0.298,0.74-1.285,1.014-1.898
		c0.62-1.389,1.156-2.589,2.126-2.873c0.291-0.083,0.741-0.117,1.233,0.205c1.968,1.276,6.04,8.427,6.803,11.952
		c0.028,0.132,0.024,0.268-0.011,0.397L283.119,285.731z"/>
	<path fill="#FFFFFF" d="M299.535,276.675c-3.375,0-6.12-2.837-6.12-6.323c0-3.493,2.745-6.335,6.12-6.335s6.121,2.842,6.121,6.335
		C305.656,273.838,302.91,276.675,299.535,276.675z M299.535,265.676c-2.459,0-4.46,2.098-4.46,4.676
		c0,2.571,2.001,4.663,4.46,4.663c2.46,0,4.461-2.092,4.461-4.663C303.996,267.773,301.995,265.676,299.535,265.676z"/>
	<path fill="#FFFFFF" d="M315.009,288.508c-3.381,0-6.133-2.831-6.133-6.311c0-3.493,2.752-6.336,6.133-6.336
		c3.368,0,6.107,2.843,6.107,6.336C321.116,285.677,318.377,288.508,315.009,288.508z M315.009,277.521
		c-2.466,0-4.473,2.098-4.473,4.676c0,2.563,2.007,4.65,4.473,4.65c2.453,0,4.448-2.087,4.448-4.65
		C319.457,279.619,317.462,277.521,315.009,277.521z"/>
	<path fill="#FFFFFF" d="M44.439,173.359c-3.537,0-8.265-0.696-12.043-1.253c-1.89-0.278-3.522-0.519-4.383-0.571l0.1-1.657
		c0.932,0.056,2.518,0.29,4.526,0.585c4.742,0.699,12.679,1.87,15.115,0.825c0.081-0.035,0.166-0.056,0.254-0.063
		c0.971-0.086,1.855-1.051,2.365-2.582c0.694-2.083,0.586-5.056-0.98-6.461c-1.986-1.773-9.516-3.229-14.499-4.191
		c-2.192-0.423-4.084-0.789-5.294-1.118l0.437-1.602c1.148,0.313,3.013,0.674,5.172,1.091c5.775,1.116,12.963,2.504,15.292,4.584
		c2.117,1.899,2.33,5.574,1.448,8.223c-0.717,2.151-2.047,3.49-3.663,3.696C47.371,173.219,46.024,173.359,44.439,173.359z"/>
	<path fill="#FFFFFF" d="M76.477,249.311l-1.4-0.89c0.462-0.728,1.169-1.909,2.026-3.342c2.164-3.616,5.434-9.081,8.061-12.694
		c1.483-2.033,3.711-4,5.867-5.904c2.958-2.611,6.015-5.311,5.805-7.219c-0.218-2.033-3.685-3.604-7.355-5.268
		c-2.168-0.982-4.41-1.998-6.371-3.254c-3.714-2.38-9.317-5.99-13.812-8.888l-5.385-3.469l0.898-1.396l5.387,3.47
		c4.493,2.896,10.094,6.506,13.808,8.885c1.859,1.191,4.046,2.183,6.16,3.14c4.294,1.945,8.002,3.625,8.321,6.601
		c0.303,2.761-2.783,5.487-6.357,8.642c-2.088,1.845-4.248,3.752-5.624,5.638c-2.583,3.553-5.83,8.979-7.979,12.569
		C77.66,247.381,76.945,248.576,76.477,249.311z"/>
	<path fill="#FFFFFF" d="M324.315,254.199l-1.633-0.304l1.608-8.683l-9.095-1.229c-0.22-0.029-0.419-0.146-0.552-0.323
		c-0.134-0.178-0.19-0.4-0.158-0.62l1.237-8.409l-9.767-2.6c-0.426-0.113-0.689-0.541-0.599-0.973l3.236-15.471
		c0.045-0.219,0.178-0.41,0.368-0.531c0.19-0.12,0.42-0.158,0.638-0.105l8.755,2.104l1.555-5.676
		c0.111-0.408,0.516-0.663,0.929-0.601l11.073,1.735l1.243-10.553c0.052-0.432,0.427-0.771,0.859-0.732l59.752,2.49l-0.069,1.659
		l-58.983-2.458l-1.254,10.645c-0.026,0.224-0.143,0.428-0.322,0.564c-0.18,0.136-0.412,0.191-0.63,0.158l-11.192-1.754
		l-1.572,5.736c-0.119,0.434-0.562,0.691-0.994,0.588l-8.705-2.092l-2.9,13.863l9.722,2.588c0.408,0.108,0.67,0.506,0.608,0.923
		l-1.223,8.312l9.127,1.232c0.225,0.031,0.428,0.151,0.561,0.336c0.134,0.185,0.186,0.415,0.145,0.639L324.315,254.199z"/>
	<path fill="#FFFFFF" d="M347.674,252.511c-0.063,0-0.129-0.008-0.192-0.022l-11.403-2.716c-0.411-0.098-0.683-0.488-0.631-0.907
		l1.345-10.986c0.026-0.221,0.142-0.422,0.318-0.558c0.176-0.135,0.397-0.195,0.621-0.164l13.27,1.868
		c0.236,0.033,0.446,0.166,0.577,0.365c0.132,0.199,0.17,0.444,0.108,0.674l-3.213,11.833
		C348.374,252.267,348.04,252.511,347.674,252.511z M337.185,248.33l9.898,2.356l2.755-10.148l-11.501-1.619L337.185,248.33z"/>
	<path fill="#FFFFFF" d="M365.425,257.07c-0.071,0-0.145-0.01-0.217-0.028l-9.959-2.691c-0.213-0.058-0.394-0.198-0.503-0.389
		c-0.11-0.191-0.139-0.419-0.081-0.631l3.112-11.435c0.06-0.216,0.202-0.399,0.399-0.508c0.196-0.108,0.427-0.133,0.643-0.068
		l10.581,3.214c0.215,0.065,0.395,0.216,0.498,0.416c0.102,0.201,0.119,0.435,0.046,0.647l-3.734,10.911
		C366.093,256.851,365.771,257.07,365.425,257.07z M356.485,252.965l8.406,2.271l3.204-9.362l-8.941-2.716L356.485,252.965z"/>
	<path fill="#FFFFFF" d="M350.886,227.898c-0.071,0-0.143-0.009-0.211-0.027l-8.714-2.293c-0.443-0.115-0.708-0.567-0.593-1.01
		l2.714-10.463c0.102-0.395,0.478-0.671,0.881-0.617l8.714,0.822c0.237,0.021,0.455,0.146,0.594,0.339
		c0.141,0.192,0.19,0.438,0.138,0.671l-2.713,11.932c-0.051,0.221-0.188,0.41-0.38,0.527
		C351.185,227.857,351.036,227.898,350.886,227.898z M343.182,224.184l7.084,1.863l2.314-10.174l-7.069-0.666L343.182,224.184z"/>
	<path fill="#FFFFFF" d="M370.902,231.535c-0.069,0-0.139-0.008-0.207-0.025l-10.456-2.69c-0.423-0.108-0.688-0.525-0.61-0.954
		l2.266-12.355c0.041-0.223,0.171-0.418,0.359-0.543c0.189-0.125,0.422-0.169,0.642-0.116l11.825,2.69
		c0.224,0.05,0.416,0.191,0.532,0.389c0.115,0.197,0.145,0.435,0.08,0.654l-3.636,12.355
		C371.592,231.301,371.262,231.535,370.902,231.535z M361.401,227.404l8.931,2.298l3.159-10.739l-10.119-2.303L361.401,227.404z"/>
	<path fill="#FFFFFF" d="M366.346,194.991h-10.88c-0.459,0-0.83-0.372-0.83-0.83v-10.886c0-0.416,0.307-0.767,0.719-0.823
		l10.88-1.47c0.237-0.031,0.477,0.04,0.657,0.198c0.18,0.158,0.284,0.385,0.284,0.625v12.356
		C367.176,194.619,366.805,194.991,366.346,194.991z M356.296,193.331h9.22v-10.577l-9.22,1.246V193.331z"/>
	<path fill="#FFFFFF" d="M352.651,167.489c-0.34,0-0.649-0.209-0.774-0.532l-4.033-10.488c-0.087-0.228-0.07-0.481,0.047-0.695
		c0.116-0.214,0.32-0.365,0.559-0.415l10.88-2.267c0.233-0.048,0.477,0.005,0.667,0.148c0.191,0.143,0.312,0.361,0.33,0.599
		l0.947,11.933c0.035,0.448-0.293,0.844-0.741,0.891l-7.793,0.822C352.71,167.487,352.681,167.489,352.651,167.489z
		 M349.744,156.784l3.454,8.982l6.355-0.67l-0.808-10.188L349.744,156.784z"/>
	<path fill="#FFFFFF" d="M373.714,181.189c-0.368,0-0.702-0.246-0.801-0.615l-5.502-20.552c-0.059-0.222-0.024-0.458,0.097-0.652
		s0.317-0.331,0.541-0.376l20.64-4.16l0.328,1.628l-19.773,3.985l5.072,18.945l17.386-3.483l0.326,1.627l-18.149,3.637
		C373.822,181.185,373.769,181.189,373.714,181.189z"/>
	
		<rect x="380.814" y="157.92" transform="matrix(0.1548 0.988 -0.988 0.1548 488.8215 -234.8207)" fill="#FFFFFF" width="1.66" height="20.691"/>
	<path fill="#FFFFFF" d="M269.248,118.289c-0.13,0-0.262-0.03-0.385-0.094l-8.713-4.559c-0.201-0.105-0.352-0.289-0.413-0.507
		c-0.062-0.219-0.033-0.453,0.083-0.649l5.867-9.968l-4.021-1.065c-0.256-0.067-0.463-0.252-0.56-0.498
		c-0.097-0.245-0.072-0.522,0.068-0.745l4.175-6.665l-7.022-3.148c-0.227-0.102-0.396-0.301-0.462-0.541
		c-0.064-0.24-0.018-0.497,0.127-0.7l3.532-4.931l-6.268-2.405c-0.215-0.082-0.386-0.25-0.473-0.464
		c-0.086-0.214-0.079-0.454,0.018-0.662l26.864-57.521l1.504,0.703l-26.486,56.713l6.438,2.471c0.24,0.092,0.424,0.29,0.498,0.537
		c0.073,0.246,0.029,0.513-0.121,0.722l-3.566,4.979l6.966,3.123c0.219,0.098,0.385,0.287,0.455,0.516
		c0.069,0.23,0.036,0.479-0.091,0.682l-4.084,6.519l3.99,1.056c0.252,0.066,0.457,0.247,0.556,0.487
		c0.099,0.24,0.079,0.513-0.053,0.737l-5.979,10.159l7.26,3.798l4.995-7.969c0.227-0.362,0.692-0.493,1.074-0.302l5.718,2.861
		l3.247-5.74c0.115-0.204,0.312-0.35,0.541-0.401c0.227-0.051,0.468-0.004,0.659,0.131l5.225,3.683l4.103-5.777
		c0.265-0.373,0.781-0.461,1.155-0.198l5.334,3.761l40.286-39.572l1.164,1.185l-40.78,40.057c-0.287,0.282-0.733,0.318-1.061,0.086
		l-5.224-3.684l-4.103,5.777c-0.266,0.373-0.781,0.462-1.155,0.198l-5.151-3.632l-3.184,5.629c-0.218,0.385-0.697,0.532-1.094,0.334
		l-5.748-2.876l-5.003,7.98C269.795,118.149,269.525,118.289,269.248,118.289z"/>
	<path fill="#FFFFFF" d="M292.901,97.737c-0.157,0-0.312-0.044-0.447-0.13l-22.308-14.225c-0.378-0.241-0.496-0.739-0.267-1.124
		l4.568-7.685c0.117-0.198,0.312-0.337,0.536-0.387c0.224-0.049,0.459-0.003,0.647,0.127l21.885,15.059
		c0.362,0.25,0.467,0.737,0.239,1.113l-4.145,6.851c-0.116,0.191-0.305,0.328-0.521,0.378
		C293.027,97.729,292.964,97.737,292.901,97.737z M271.718,82.415l20.913,13.335l3.3-5.454l-20.509-14.112L271.718,82.415z"/>
	<path fill="#FFFFFF" d="M302.547,86.315c-0.167,0-0.335-0.05-0.481-0.155l-22.406-15.98c-0.202-0.144-0.329-0.371-0.346-0.619
		c-0.018-0.248,0.077-0.49,0.258-0.66l7.257-6.851c0.285-0.268,0.717-0.301,1.038-0.083l21.474,14.635
		c0.188,0.128,0.315,0.329,0.352,0.555c0.036,0.226-0.022,0.456-0.162,0.637l-6.324,8.196
		C303.042,86.204,302.796,86.315,302.547,86.315z M281.445,69.415l20.934,14.93l5.298-6.866l-20.194-13.763L281.445,69.415z"/>
	<path fill="#FFFFFF" d="M353.208,202.988l-18.672-9.963c-0.218-0.117-0.372-0.323-0.423-0.564
		c-0.049-0.242,0.011-0.493,0.165-0.686l12.569-15.741l-15.576-9.082c-0.196-0.114-0.338-0.304-0.39-0.525
		c-0.053-0.221-0.012-0.454,0.112-0.645l12.772-19.605l1.391,0.906l-12.297,18.875l15.654,9.126
		c0.208,0.122,0.354,0.327,0.397,0.564s-0.017,0.482-0.167,0.67l-12.547,15.711l17.791,9.494L353.208,202.988z"/>
	<path fill="#FFFFFF" d="M349.362,319.812c-2.661-2.802-6.122-4.924-9.176-6.796c-4.104-2.515-7.648-4.688-8.056-7.789
		c-0.235-1.796,0.612-3.683,2.592-5.765c5.91-6.22,10.193-3.12,15.15,0.472c2.531,1.834,5.399,3.912,8.994,5.251l-0.578,1.556
		c-3.808-1.417-6.773-3.566-9.39-5.462c-5.028-3.644-8.062-5.841-12.974-0.674c-1.612,1.697-2.314,3.138-2.148,4.405
		c0.304,2.316,3.535,4.298,7.276,6.591c3.141,1.926,6.701,4.108,9.512,7.067L349.362,319.812z"/>
	<path fill="#FFFFFF" d="M312.005,146.275c-0.064-0.314-0.4-1.042-0.726-1.746c-1.076-2.333-2.552-5.527-1.332-7.481
		c1.44-2.321,5.629-3.554,10.954-4.923l0.414,1.607c-3.694,0.95-8.754,2.251-9.959,4.193c-0.746,1.195,0.616,4.145,1.431,5.907
		c0.413,0.896,0.74,1.605,0.844,2.106L312.005,146.275z"/>
	<path fill="#FFFFFF" d="M305.073,138.259c-1.841,0-3.146-0.269-3.695-1.175c-0.844-1.371,0.44-4.034,2.207-7.373
		c0.364-0.69,0.71-1.343,0.826-1.649l1.552,0.592c-0.153,0.401-0.488,1.034-0.911,1.834c-0.651,1.229-2.63,4.971-2.255,5.734
		c0.428,0.599,4.011,0.324,5.359,0.221c0.997-0.077,1.855-0.143,2.424-0.106l-0.105,1.657c-0.45-0.029-1.296,0.036-2.191,0.105
		C307.094,138.188,306.014,138.259,305.073,138.259z"/>
	<path fill="#FFFFFF" d="M241.546,73.293l-1.657-0.104l2.489-39.546c0.015-0.23,0.124-0.444,0.303-0.59
		c0.179-0.147,0.408-0.214,0.638-0.18l16.621,2.267c4.311-0.32,10.692-2.389,14.926-3.76c1.506-0.488,2.694-0.873,3.505-1.09
		l0.43,1.604c-0.769,0.206-1.999,0.604-3.423,1.066c-4.337,1.405-10.893,3.529-15.406,3.843c-0.058,0.002-0.114,0.002-0.17-0.005
		l-15.821-2.159L241.546,73.293z"/>
	
		<rect x="211.224" y="68.364" transform="matrix(0.2501 0.9682 -0.9682 0.2501 234.5624 -164.456)" fill="#FFFFFF" width="24.442" height="1.659"/>
	<path fill="#FFFFFF" d="M199.141,86.936c-1.229-0.671-2.965-1.452-4.976-2.356c-4.911-2.209-11.638-5.235-16.228-9.15
		c-4.79-4.094-10.303-11.868-13.951-17.012c-1.215-1.714-2.265-3.194-2.966-4.08l1.302-1.03c0.728,0.919,1.739,2.345,3.019,4.149
		c3.601,5.078,9.043,12.75,13.675,16.71c4.408,3.76,11.01,6.729,15.831,8.898c2.042,0.918,3.805,1.711,5.089,2.413L199.141,86.936z"
		/>
	<path fill="#FFFFFF" d="M214.938,86.955l-0.723-1.495c1.73-0.834,4.264-1.839,7.195-3.003c6.734-2.673,15.957-6.334,20.324-10.059
		c4.522-3.857,6.899-10.624,8.472-15.101c0.582-1.661,1.044-2.973,1.5-3.856l1.476,0.763c-0.404,0.781-0.87,2.107-1.41,3.644
		c-1.632,4.646-4.097,11.666-8.96,15.813c-4.575,3.903-13.565,7.472-20.789,10.339C219.12,85.152,216.613,86.147,214.938,86.955z"/>
	
		<rect x="192.944" y="58.09" transform="matrix(0.9925 0.122 -0.122 0.9925 10.0443 -23.1225)" fill="#FFFFFF" width="1.66" height="24.685"/>
	<path fill="#FFFFFF" d="M128.425,357.423l-0.307-1.631c2.861-0.537,7.361-1.641,12.571-2.919
		c15.091-3.701,37.898-9.294,54.272-9.451c15.915-0.15,36.052,4.602,50.762,8.073c5.87,1.386,10.94,2.583,14.743,3.248l-0.286,1.636
		c-3.851-0.675-8.942-1.876-14.838-3.268c-14.628-3.453-34.662-8.2-50.365-8.03c-16.182,0.156-38.876,5.722-53.893,9.404
		C135.635,355.822,131.33,356.878,128.425,357.423z"/>
	<path fill="#FFFFFF" d="M181.787,344.895l-1.643-0.24l1.967-13.502c0.06-0.407,0.409-0.71,0.821-0.71h3.535
		c0.445,0,0.811,0.351,0.829,0.795l0.511,12.045l-1.658,0.069l-0.477-11.249h-2.022L181.787,344.895z"/>
	<path fill="#FFFFFF" d="M159.384,348.905l-1.652-0.166l1.357-13.502c0.042-0.425,0.4-0.747,0.826-0.747h2.439
		c0.449,0,0.817,0.357,0.83,0.806l0.349,12.045l-1.659,0.048l-0.325-11.238h-0.883L159.384,348.905z"/>
	<path fill="#FFFFFF" d="M242.913,351.975l-2.887-15.712h-2.028l-0.398,12.064l-1.658-0.056l0.424-12.866
		c0.014-0.447,0.381-0.803,0.829-0.803h3.523c0.4,0,0.744,0.286,0.816,0.681l3.012,16.392L242.913,351.975z"/>
	<path fill="#FFFFFF" d="M215.524,344.388l-1.839-11.083l-1.012,0.208l-0.48,10.254l-1.658-0.077l0.51-10.899
		c0.018-0.379,0.291-0.697,0.662-0.773l2.49-0.511c0.219-0.046,0.45,0.001,0.637,0.129c0.186,0.128,0.312,0.326,0.349,0.548
		l1.979,11.933L215.524,344.388z"/>
	<path fill="#FFFFFF" d="M144.357,352.382l-1.826-11.089l-1.013,0.213l-0.492,10.259l-1.659-0.08l0.523-10.898
		c0.018-0.377,0.289-0.694,0.658-0.772l2.489-0.523c0.222-0.047,0.453-0.001,0.64,0.127c0.187,0.129,0.313,0.327,0.35,0.551
		l1.967,11.945L144.357,352.382z"/>
	<path fill="#FFFFFF" d="M176.312,73.686l-6.395-39.417l-17.718,3.861c-0.105,0.023-0.215,0.025-0.322,0.006l-12.236-2.18
		l0.291-1.634l12.074,2.151l18.413-4.013c0.223-0.049,0.456-0.003,0.644,0.125c0.188,0.128,0.316,0.328,0.353,0.553l6.535,40.281
		L176.312,73.686z"/>
	<path fill="#FFFFFF" d="M99.946,300.179l-1.233-1.112c0.616-0.684,1.744-1.715,3.171-3.021c3.158-2.89,7.88-7.209,9.115-9.871
		l-2.822-10.107c-0.034-0.122-0.04-0.251-0.017-0.376c0.444-2.36,2.402-5.89,4.475-9.625c2.636-4.75,5.916-10.662,4.925-12.804
		c-0.978-2.103-6.914-1.865-11.687-1.675c-3.542,0.142-6.888,0.275-8.881-0.377c-0.109-0.035-0.209-0.093-0.295-0.17l-7.399-6.622
		L21.83,270.813l-0.605-1.547l67.943-26.58c0.292-0.113,0.623-0.054,0.856,0.155l7.644,6.841c1.754,0.501,4.999,0.372,8.139,0.246
		c5.809-0.229,11.815-0.473,13.259,2.636c1.347,2.908-1.726,8.445-4.979,14.308c-1.948,3.511-3.792,6.833-4.257,8.942l2.847,10.195
		c0.049,0.175,0.039,0.36-0.027,0.529c-1.183,2.989-6.074,7.465-9.645,10.731C101.665,298.496,100.508,299.554,99.946,300.179z"/>
	<path fill="#FFFFFF" d="M311.745,148.095l-0.742-1.485l12.11-6.058l-8.4-17.092c-3.965,3.138-7.178,5.218-9.855,5.317
		c-2.278,0.084-5.478-1.571-6.743-3.471c-0.808-1.21-0.645-2.185-0.365-2.789c0.06-0.13,0.153-0.243,0.27-0.326l12.448-8.943
		c0.198-0.143,0.451-0.19,0.686-0.131c0.237,0.06,0.436,0.22,0.543,0.439l13.271,27.004c0.201,0.409,0.034,0.904-0.374,1.108
		L311.745,148.095z M299.2,123.385c-0.057,0.285,0.042,0.621,0.295,1c0.943,1.415,3.608,2.806,5.301,2.732
		c2.423-0.089,5.965-2.631,9.168-5.183l-3.325-6.767L299.2,123.385z"/>
	<path fill="#FFFFFF" d="M335.233,133.196c-0.064-0.315-0.399-1.044-0.723-1.75c-1.07-2.33-2.534-5.521-1.338-7.471
		c1.439-2.319,5.641-3.555,10.982-4.929l0.413,1.607c-3.913,1.007-8.783,2.259-9.983,4.193c-0.729,1.191,0.624,4.144,1.435,5.908
		c0.411,0.897,0.736,1.605,0.84,2.105L335.233,133.196z"/>
	<path fill="#FFFFFF" d="M328.311,125.187c-1.839,0-3.145-0.267-3.699-1.162c-0.827-1.394,0.453-4.048,2.212-7.375
		c0.367-0.693,0.712-1.347,0.829-1.655l1.552,0.592c-0.154,0.402-0.488,1.036-0.913,1.839c-0.65,1.23-2.631,4.975-2.26,5.74
		c0.428,0.585,4.052,0.306,5.417,0.2c0.979-0.076,1.823-0.14,2.38-0.11l-0.094,1.658c-0.446-0.026-1.278,0.039-2.158,0.107
		C330.364,125.115,329.266,125.187,328.311,125.187z"/>
	<path fill="#FFFFFF" d="M334.973,135.017l-0.74-1.485l12.133-6.059l-8.41-17.083c-3.479,2.752-7.031,5.203-9.845,5.307
		c-2.269,0.092-5.475-1.565-6.748-3.458c-0.814-1.211-0.661-2.188-0.389-2.794c0.061-0.133,0.154-0.248,0.273-0.333l12.448-8.943
		c0.198-0.142,0.447-0.19,0.686-0.131c0.237,0.059,0.436,0.22,0.543,0.438l13.295,27.004c0.201,0.41,0.034,0.905-0.375,1.109
		L334.973,135.017z M322.432,110.304c-0.052,0.288,0.051,0.626,0.309,1.009c0.949,1.411,3.625,2.795,5.309,2.725
		c2.421-0.09,5.956-2.624,9.155-5.172l-3.337-6.778L322.432,110.304z"/>
	<path fill="#FFFFFF" d="M307.838,159.916c-0.251,0-0.495-0.115-0.656-0.322l-3.766-4.865c-1.375-0.338-3.396-0.089-5.716,0.198
		c-5.563,0.687-13.184,1.626-17.753-5.69c-4.567-7.313,0.772-12.852,4.672-16.896c1.596-1.655,3.108-3.224,3.482-4.454l-2.407-6.839
		c-0.111-0.315-0.021-0.667,0.226-0.891l15.336-13.901l1.115,1.23l-14.928,13.531l2.307,6.554c0.05,0.142,0.061,0.294,0.03,0.441
		c-0.352,1.733-2.027,3.47-3.966,5.481c-3.91,4.054-8.342,8.649-4.46,14.864c4.01,6.419,10.458,5.624,16.143,4.922
		c2.648-0.326,4.938-0.608,6.657-0.067c0.161,0.051,0.304,0.149,0.407,0.283l3.56,4.6l74.119-27.514l0.577,1.557l-74.69,27.726
		C308.033,159.898,307.935,159.916,307.838,159.916z"/>
	
		<rect x="173.598" y="49.673" transform="matrix(0.5153 0.857 -0.857 0.5153 136.0906 -139.6326)" fill="#FFFFFF" width="35.798" height="1.66"/>
	
		<rect x="197.934" y="42.362" transform="matrix(0.0399 0.9992 -0.9992 0.0399 266.8443 -191.3403)" fill="#FFFFFF" width="70.119" height="1.66"/>
	
		<rect x="223.032" y="32.604" transform="matrix(0.8573 0.5148 -0.5148 0.8573 57.9417 -108.0377)" fill="#FFFFFF" width="1.661" height="35.798"/>
	<path fill="#FFFFFF" d="M227.49,390.52c-0.025-0.615-0.074-1.24-0.145-1.856c-1.992-18.811-18.19-32.572-36.111-30.683
		c-15.199,1.614-27.369,14.356-28.938,30.296l-1.652-0.162c1.646-16.72,14.437-30.087,30.416-31.784
		c18.836-1.992,35.848,12.438,37.934,32.151c0.076,0.648,0.127,1.315,0.154,1.972L227.49,390.52z"/>
	<path fill="#FFFFFF" d="M238.24,387.174c-0.175-0.502-0.334-1.049-0.471-1.626c-0.958-4.053-0.336-8.263,1.703-11.554
		c1.698-2.74,4.257-4.628,7.205-5.316c2.948-0.698,6.086-0.152,8.831,1.543c3.289,2.03,5.726,5.517,6.681,9.562
		c0.001,0.004,0.019,0.086,0.02,0.09c0.046,0.204,0.091,0.411,0.136,0.637l-1.628,0.324c-0.043-0.215-0.086-0.41-0.129-0.604
		c-0.869-3.688-3.033-6.796-5.952-8.598c-2.368-1.461-5.059-1.936-7.578-1.34c-2.519,0.589-4.71,2.213-6.174,4.576
		c-1.81,2.918-2.355,6.67-1.499,10.295c0.123,0.521,0.266,1.014,0.424,1.462L238.24,387.174z"/>
	<path fill="#FFFFFF" d="M151.319,385.767l-1.605-0.425c1.269-4.79,0.8-9.758-1.255-13.287c-1.315-2.259-3.165-3.757-5.349-4.332
		c-5.126-1.34-10.848,2.706-13.607,9.62l-1.542-0.616c3.074-7.702,9.622-12.164,15.57-10.609c2.621,0.69,4.82,2.454,6.362,5.102
		C152.166,375.122,152.699,380.56,151.319,385.767z"/>
	<path fill="#FFFFFF" d="M259.69,27.995c-1.444,0-2.93-0.167-4.423-0.517c-4.122-0.965-7.7-3.176-10.073-6.226
		c-2.415-3.103-3.302-6.701-2.497-10.13c0.124-0.512,0.248-0.927,0.392-1.309l1.555,0.581c-0.12,0.324-0.223,0.667-0.331,1.113
		c-0.687,2.925,0.091,6.026,2.191,8.725c2.142,2.751,5.388,4.75,9.142,5.629c7.185,1.682,14.146-1.223,16.198-6.755l1.557,0.578
		C271.494,24.819,265.983,27.994,259.69,27.995z"/>
	<path fill="#FFFFFF" d="M155.375,25.793c-3.044,0-5.978-0.785-8.417-2.299c-2.817-1.75-4.754-4.364-5.453-7.36l1.616-0.376
		c0.598,2.564,2.272,4.811,4.712,6.327c3.165,1.966,7.287,2.552,11.308,1.611c7.405-1.735,12.271-8.116,10.846-14.224
		c-0.015-0.062-0.022-0.126-0.022-0.189l0.78,0l0.635-0.614l0.174,0.438l0.049-0.011c1.633,6.998-3.788,14.273-12.083,16.217
		C158.139,25.634,156.745,25.793,155.375,25.793z"/>
	<path fill="#FFFFFF" d="M140.309,118.638c-4.633,0-10.91-2.396-12.1-4.136c-1.308-1.907,2.021-4.308,4.695-6.237
		c0.666-0.48,1.295-0.934,1.513-1.154l1.181,1.167c-0.315,0.319-0.905,0.745-1.722,1.334c-1.084,0.782-4.383,3.162-4.291,3.97
		c0.849,1.232,8.038,4.082,12.324,3.262c4.003-0.755,9.879-4.693,12.331-8.262c2.353-3.436,2.614-10.905,2.171-12.612
		c-0.424-0.195-2.054,0.738-2.75,1.135c-0.676,0.384-1.21,0.688-1.631,0.803l-0.436-1.602c0.218-0.06,0.764-0.37,1.246-0.644
		c1.438-0.817,3.067-1.746,4.228-1.258c0.332,0.139,0.765,0.45,0.949,1.144c0.568,2.19,0.223,10.129-2.407,13.972
		c-2.703,3.935-8.959,8.118-13.39,8.954C141.631,118.586,140.988,118.638,140.309,118.638z"/>
</g>
<g>
	<g>
		<path fill="#FFFFFF" d="M247.766,176h-10.543c-3.309,0-6.004,0.921-8.092,2.76c-2.086,1.841-3.336,4.435-3.746,7.783
			l-2.588,21.087c-0.418,3.39,0.172,5.996,1.77,7.814c1.595,1.82,4.087,2.729,7.478,2.729h10.544l1.296-10.543h-6.823
			c-1.449,0-2.311-0.041-2.591-0.125c-0.712-0.249-1.007-0.889-0.878-1.922l1.881-15.318c0.188-1.529,0.549-2.535,1.082-3.009
			c0.533-0.476,1.564-0.713,3.095-0.713h6.821"/>
	</g>
	<path fill="#FFFFFF" d="M149.85,207.631h-6.822c-1.448,0-2.312-0.041-2.59-0.125c-0.714-0.249-1.007-0.889-0.879-1.922
		l1.881-15.318c0.186-1.529,0.546-2.535,1.082-3.009c0.532-0.476,1.564-0.713,3.095-0.713h6.822L153.733,176h-10.544
		c-3.306,0-6.002,0.921-8.091,2.76c-2.086,1.841-3.334,4.435-3.746,7.783l-2.588,21.087c-0.417,3.39,0.172,5.996,1.768,7.814
		c1.596,1.82,4.089,2.729,7.48,2.729h10.543L149.85,207.631z"/>
	<path fill="#FFFFFF" d="M177.545,176h-10.541c-3.35,0-6.059,0.921-8.122,2.76c-2.068,1.841-3.306,4.435-3.717,7.783l-3.882,31.63
		h10.542l3.428-27.908c0.188-1.529,0.548-2.535,1.082-3.009c0.534-0.476,1.544-0.713,3.033-0.713h6.884L177.545,176z"/>
	<g>
		<path fill="#FFFFFF" d="M220.109,178.76c-1.613-1.839-4.096-2.76-7.443-2.76h-16.021l-3.562,29.024
			c-0.245,1.985-1.205,2.978-2.879,2.978c-0.817,0-1.435-0.288-1.854-0.867c-0.42-0.579-0.58-1.282-0.477-2.11L191.437,176h-10.542
			l-3.883,31.631c-0.411,3.349,0.195,5.943,1.82,7.783c1.625,1.84,4.102,2.76,7.429,2.76h5.209c0.068,0,0.135-0.002,0.202-0.002
			v0.002h10.544l3.885-31.63c2.189,0,3.5,0.102,3.93,0.311c0.816,0.414,1.111,1.55,0.883,3.412l-3.425,27.908h10.542l3.885-31.63
			C222.323,183.195,221.722,180.601,220.109,178.76z"/>
	</g>
	<polygon fill="#FFFFFF" points="262.983,207.631 273.525,207.631 272.231,218.174 261.689,218.174 	"/>
	<path fill="#FFFFFF" d="M266.866,176l-1.941,15.816h-5.272L261.597,176h-10.545l-5.177,42.174h10.544l1.939-15.815h15.814
		L277.411,176H266.866z M272.381,198.947l-1.208,1.059l-1.678-1.912l-2.227,1.982l-1.067-1.196l2.235-1.993l-1.686-1.924
		l1.207-1.056l1.679,1.912l2.228-1.983l1.065,1.197l-2.236,1.992L272.381,198.947z M273.334,191.192l-1.208,1.059l-1.678-1.913
		l-2.227,1.983l-1.067-1.2l2.235-1.99l-1.686-1.922l1.206-1.061l1.678,1.914l2.227-1.983l1.068,1.198l-2.236,1.991L273.334,191.192z
		 M273.078,184.493l-1.679-1.913l-2.227,1.983l-1.066-1.198l2.234-1.992l-1.685-1.923l1.206-1.057l1.68,1.912l2.227-1.983
		l1.066,1.197l-2.235,1.993l1.687,1.923L273.078,184.493z"/>
</g>
</svg>
